<svg width="140" height="41" viewBox="0 0 140 41" fill="none" xmlns="http://www.w3.org/2000/svg">
<rect y="0.5" width="40.1878" height="40" rx="5" fill="#9EFF00"/>
<path d="M7.32373 12.9749L20.0937 20.5V34.8662L7.32373 27.5691L7.32373 12.9749Z" fill="#1A1A1A"/>
<path fill-rule="evenodd" clip-rule="evenodd" d="M21.2205 20.4899V32.9246L31.7369 26.9152V14.2927L21.2205 20.4899ZM32.8637 27.5691L20.0937 34.8662V20.5L7.32373 12.9748L20.0937 6.13379L32.8637 12.9748V27.5691ZM31.1462 13.333L20.0937 7.41205L9.62249 13.0216L20.6485 19.5191L31.1462 13.333Z" fill="#1A1A1A"/>
<path d="M50.298 26.112C49.57 26.112 48.9307 25.972 48.38 25.692C47.8293 25.4027 47.4047 25.0013 47.106 24.488C46.8073 23.9747 46.658 23.382 46.658 22.71V19.476C46.658 18.804 46.8073 18.2113 47.106 17.698C47.4047 17.1847 47.8293 16.788 48.38 16.508C48.9307 16.228 49.57 16.088 50.298 16.088C51.0167 16.088 51.6467 16.2233 52.188 16.494C52.7387 16.7553 53.1633 17.1333 53.462 17.628C53.77 18.1133 53.924 18.678 53.924 19.322C53.924 19.406 53.868 19.4573 53.756 19.476L52.118 19.574H52.09C51.9967 19.574 51.95 19.5227 51.95 19.42C51.95 18.9253 51.796 18.5287 51.488 18.23C51.1893 17.9313 50.7927 17.782 50.298 17.782C49.794 17.782 49.388 17.9313 49.08 18.23C48.7813 18.5287 48.632 18.9253 48.632 19.42V22.794C48.632 23.2793 48.7813 23.6713 49.08 23.97C49.388 24.2687 49.794 24.418 50.298 24.418C50.7927 24.418 51.1893 24.2687 51.488 23.97C51.796 23.6713 51.95 23.2793 51.95 22.794C51.95 22.6913 52.006 22.64 52.118 22.64L53.756 22.71C53.8027 22.71 53.84 22.724 53.868 22.752C53.9053 22.78 53.924 22.8127 53.924 22.85C53.924 23.494 53.77 24.0633 53.462 24.558C53.1633 25.0527 52.7387 25.4353 52.188 25.706C51.6467 25.9767 51.0167 26.112 50.298 26.112ZM58.8576 26.154C58.1296 26.154 57.4856 26.0047 56.9256 25.706C56.3749 25.4073 55.9456 24.992 55.6376 24.46C55.3296 23.9187 55.1756 23.298 55.1756 22.598V19.602C55.1756 18.9113 55.3296 18.3 55.6376 17.768C55.9456 17.236 56.3749 16.8253 56.9256 16.536C57.4856 16.2373 58.1296 16.088 58.8576 16.088C59.5949 16.088 60.2389 16.2373 60.7896 16.536C61.3496 16.8253 61.7836 17.236 62.0916 17.768C62.3996 18.3 62.5536 18.9113 62.5536 19.602V22.598C62.5536 23.298 62.3996 23.9187 62.0916 24.46C61.7836 25.0013 61.3496 25.4213 60.7896 25.72C60.2389 26.0093 59.5949 26.154 58.8576 26.154ZM58.8576 24.46C59.3709 24.46 59.7862 24.2967 60.1036 23.97C60.4209 23.6433 60.5796 23.2093 60.5796 22.668V19.588C60.5796 19.0467 60.4209 18.6127 60.1036 18.286C59.7956 17.95 59.3802 17.782 58.8576 17.782C58.3442 17.782 57.9289 17.95 57.6116 18.286C57.3036 18.6127 57.1496 19.0467 57.1496 19.588V22.668C57.1496 23.2093 57.3036 23.6433 57.6116 23.97C57.9289 24.2967 58.3442 24.46 58.8576 24.46ZM64.2349 26C64.1882 26 64.1462 25.986 64.1089 25.958C64.0809 25.9207 64.0669 25.8787 64.0669 25.832V16.368C64.0669 16.3213 64.0809 16.284 64.1089 16.256C64.1462 16.2187 64.1882 16.2 64.2349 16.2H67.7349C68.4349 16.2 69.0462 16.326 69.5689 16.578C70.1009 16.8207 70.5116 17.166 70.8009 17.614C71.0902 18.062 71.2349 18.58 71.2349 19.168V23.032C71.2349 23.62 71.0902 24.138 70.8009 24.586C70.5116 25.034 70.1009 25.384 69.5689 25.636C69.0462 25.8787 68.4349 26 67.7349 26H64.2349ZM66.0409 24.236C66.0409 24.2827 66.0642 24.306 66.1109 24.306H67.8049C68.2342 24.306 68.5796 24.1613 68.8409 23.872C69.1116 23.5827 69.2516 23.1953 69.2609 22.71V19.49C69.2609 19.0047 69.1256 18.6173 68.8549 18.328C68.5936 18.0387 68.2389 17.894 67.7909 17.894H66.1109C66.0642 17.894 66.0409 17.9173 66.0409 17.964V24.236ZM78.0972 20.946C78.1439 20.946 78.1812 20.9647 78.2092 21.002C78.2465 21.03 78.2652 21.0673 78.2652 21.114V22.472C78.2652 22.5187 78.2465 22.5607 78.2092 22.598C78.1812 22.626 78.1439 22.64 78.0972 22.64H76.1792C76.1325 22.64 76.1092 22.6633 76.1092 22.71V24.6C76.1092 24.6467 76.0905 24.6887 76.0532 24.726C76.0252 24.754 75.9879 24.768 75.9412 24.768H74.5972C74.5505 24.768 74.5085 24.754 74.4712 24.726C74.4432 24.6887 74.4292 24.6467 74.4292 24.6V22.71C74.4292 22.6633 74.4059 22.64 74.3592 22.64H72.4412C72.3945 22.64 72.3525 22.626 72.3152 22.598C72.2872 22.5607 72.2732 22.5187 72.2732 22.472V21.114C72.2732 21.0673 72.2872 21.03 72.3152 21.002C72.3525 20.9647 72.3945 20.946 72.4412 20.946H74.3592C74.4059 20.946 74.4292 20.9227 74.4292 20.876V18.944C74.4292 18.8973 74.4432 18.86 74.4712 18.832C74.5085 18.7947 74.5505 18.776 74.5972 18.776H75.9412C75.9879 18.776 76.0252 18.7947 76.0532 18.832C76.0905 18.86 76.1092 18.8973 76.1092 18.944V20.876C76.1092 20.9227 76.1325 20.946 76.1792 20.946H78.0972ZM85.6925 26.112C84.9458 26.112 84.2925 25.9953 83.7325 25.762C83.1725 25.5193 82.7385 25.1787 82.4305 24.74C82.1318 24.292 81.9825 23.774 81.9825 23.186V22.878C81.9825 22.8313 81.9965 22.794 82.0245 22.766C82.0618 22.7287 82.1038 22.71 82.1505 22.71H83.7465C83.7932 22.71 83.8305 22.7287 83.8585 22.766C83.8958 22.794 83.9145 22.8313 83.9145 22.878V23.088C83.9145 23.4613 84.0872 23.7787 84.4325 24.04C84.7778 24.292 85.2445 24.418 85.8325 24.418C86.3272 24.418 86.6958 24.3153 86.9385 24.11C87.1812 23.8953 87.3025 23.634 87.3025 23.326C87.3025 23.102 87.2278 22.9153 87.0785 22.766C86.9292 22.6073 86.7238 22.472 86.4625 22.36C86.2105 22.2387 85.8045 22.0753 85.2445 21.87C84.6192 21.6553 84.0872 21.436 83.6485 21.212C83.2192 20.988 82.8552 20.6847 82.5565 20.302C82.2672 19.91 82.1225 19.4293 82.1225 18.86C82.1225 18.3 82.2672 17.81 82.5565 17.39C82.8458 16.97 83.2472 16.648 83.7605 16.424C84.2738 16.2 84.8665 16.088 85.5385 16.088C86.2478 16.088 86.8778 16.214 87.4285 16.466C87.9885 16.718 88.4225 17.0727 88.7305 17.53C89.0478 17.978 89.2065 18.5007 89.2065 19.098V19.308C89.2065 19.3547 89.1878 19.3967 89.1505 19.434C89.1225 19.462 89.0852 19.476 89.0385 19.476H87.4285C87.3818 19.476 87.3398 19.462 87.3025 19.434C87.2745 19.3967 87.2605 19.3547 87.2605 19.308V19.196C87.2605 18.804 87.0972 18.4727 86.7705 18.202C86.4532 17.922 86.0145 17.782 85.4545 17.782C85.0158 17.782 84.6705 17.8753 84.4185 18.062C84.1758 18.2487 84.0545 18.5053 84.0545 18.832C84.0545 19.0653 84.1245 19.2613 84.2645 19.42C84.4138 19.5787 84.6285 19.7233 84.9085 19.854C85.1978 19.9753 85.6412 20.1433 86.2385 20.358C86.9012 20.6007 87.4192 20.8153 87.7925 21.002C88.1752 21.1887 88.5158 21.4687 88.8145 21.842C89.1225 22.206 89.2765 22.682 89.2765 23.27C89.2765 24.1473 88.9545 24.8427 88.3105 25.356C87.6665 25.86 86.7938 26.112 85.6925 26.112ZM93.7107 26.112C92.9267 26.112 92.2547 25.9067 91.6947 25.496C91.1347 25.0853 90.752 24.5253 90.5467 23.816C90.416 23.3773 90.3507 22.9013 90.3507 22.388C90.3507 21.8373 90.416 21.3427 90.5467 20.904C90.7614 20.2133 91.1487 19.672 91.7087 19.28C92.2687 18.888 92.9407 18.692 93.7247 18.692C94.49 18.692 95.1434 18.888 95.6847 19.28C96.226 19.6627 96.6087 20.1993 96.8327 20.89C96.982 21.3567 97.0567 21.8467 97.0567 22.36C97.0567 22.864 96.9914 23.3353 96.8607 23.774C96.6554 24.502 96.2727 25.076 95.7127 25.496C95.162 25.9067 94.4947 26.112 93.7107 26.112ZM93.7107 24.418C94.0187 24.418 94.28 24.3247 94.4947 24.138C94.7094 23.9513 94.8634 23.6947 94.9567 23.368C95.0314 23.0693 95.0687 22.7427 95.0687 22.388C95.0687 21.996 95.0314 21.6647 94.9567 21.394C94.854 21.0767 94.6954 20.8293 94.4807 20.652C94.266 20.4747 94.0047 20.386 93.6967 20.386C93.3794 20.386 93.1134 20.4747 92.8987 20.652C92.6934 20.8293 92.544 21.0767 92.4507 21.394C92.376 21.618 92.3387 21.9493 92.3387 22.388C92.3387 22.808 92.3714 23.1347 92.4367 23.368C92.53 23.6947 92.684 23.9513 92.8987 24.138C93.1227 24.3247 93.3934 24.418 93.7107 24.418ZM98.4937 26C98.447 26 98.405 25.986 98.3677 25.958C98.3397 25.9207 98.3257 25.8787 98.3257 25.832V16.368C98.3257 16.3213 98.3397 16.284 98.3677 16.256C98.405 16.2187 98.447 16.2 98.4937 16.2H100.132C100.178 16.2 100.216 16.2187 100.244 16.256C100.281 16.284 100.3 16.3213 100.3 16.368V25.832C100.3 25.8787 100.281 25.9207 100.244 25.958C100.216 25.986 100.178 26 100.132 26H98.4937ZM105.944 18.972C105.944 18.9253 105.958 18.888 105.986 18.86C106.023 18.8227 106.065 18.804 106.112 18.804H107.75C107.796 18.804 107.834 18.8227 107.862 18.86C107.899 18.888 107.918 18.9253 107.918 18.972V25.832C107.918 25.8787 107.899 25.9207 107.862 25.958C107.834 25.986 107.796 26 107.75 26H106.112C106.065 26 106.023 25.986 105.986 25.958C105.958 25.9207 105.944 25.8787 105.944 25.832V25.356C105.944 25.328 105.934 25.314 105.916 25.314C105.897 25.3047 105.878 25.314 105.86 25.342C105.486 25.846 104.908 26.098 104.124 26.098C103.414 26.098 102.831 25.8833 102.374 25.454C101.916 25.0247 101.688 24.4227 101.688 23.648V18.972C101.688 18.9253 101.702 18.888 101.73 18.86C101.767 18.8227 101.809 18.804 101.856 18.804H103.48C103.526 18.804 103.564 18.8227 103.592 18.86C103.629 18.888 103.648 18.9253 103.648 18.972V23.158C103.648 23.5313 103.746 23.8347 103.942 24.068C104.147 24.3013 104.427 24.418 104.782 24.418C105.099 24.418 105.36 24.3247 105.566 24.138C105.771 23.942 105.897 23.69 105.944 23.382V18.972ZM113.503 20.218C113.503 20.2647 113.484 20.3067 113.447 20.344C113.419 20.372 113.381 20.386 113.335 20.386H111.991C111.944 20.386 111.921 20.4093 111.921 20.456V23.424C111.921 23.732 111.981 23.9607 112.103 24.11C112.233 24.2593 112.439 24.334 112.719 24.334H113.181C113.227 24.334 113.265 24.3527 113.293 24.39C113.33 24.418 113.349 24.4553 113.349 24.502V25.832C113.349 25.9347 113.293 25.9953 113.181 26.014C112.789 26.0327 112.509 26.042 112.341 26.042C111.566 26.042 110.987 25.916 110.605 25.664C110.222 25.4027 110.026 24.9173 110.017 24.208V20.456C110.017 20.4093 109.993 20.386 109.947 20.386H109.149C109.102 20.386 109.06 20.372 109.023 20.344C108.995 20.3067 108.981 20.2647 108.981 20.218V18.972C108.981 18.9253 108.995 18.888 109.023 18.86C109.06 18.8227 109.102 18.804 109.149 18.804H109.947C109.993 18.804 110.017 18.7807 110.017 18.734V17.068C110.017 17.0213 110.031 16.984 110.059 16.956C110.096 16.9187 110.138 16.9 110.185 16.9H111.753C111.799 16.9 111.837 16.9187 111.865 16.956C111.902 16.984 111.921 17.0213 111.921 17.068V18.734C111.921 18.7807 111.944 18.804 111.991 18.804H113.335C113.381 18.804 113.419 18.8227 113.447 18.86C113.484 18.888 113.503 18.9253 113.503 18.972V20.218ZM115.755 17.992C115.438 17.992 115.172 17.8893 114.957 17.684C114.752 17.4693 114.649 17.2033 114.649 16.886C114.649 16.5593 114.752 16.2933 114.957 16.088C115.162 15.8827 115.428 15.78 115.755 15.78C116.082 15.78 116.348 15.8827 116.553 16.088C116.758 16.2933 116.861 16.5593 116.861 16.886C116.861 17.2033 116.754 17.4693 116.539 17.684C116.334 17.8893 116.072 17.992 115.755 17.992ZM114.915 26C114.868 26 114.826 25.986 114.789 25.958C114.761 25.9207 114.747 25.8787 114.747 25.832V18.958C114.747 18.9113 114.761 18.874 114.789 18.846C114.826 18.8087 114.868 18.79 114.915 18.79H116.553C116.6 18.79 116.637 18.8087 116.665 18.846C116.702 18.874 116.721 18.9113 116.721 18.958V25.832C116.721 25.8787 116.702 25.9207 116.665 25.958C116.637 25.986 116.6 26 116.553 26H114.915ZM121.437 26.112C120.653 26.112 119.981 25.9067 119.421 25.496C118.861 25.0853 118.479 24.5253 118.273 23.816C118.143 23.3773 118.077 22.9013 118.077 22.388C118.077 21.8373 118.143 21.3427 118.273 20.904C118.488 20.2133 118.875 19.672 119.435 19.28C119.995 18.888 120.667 18.692 121.451 18.692C122.217 18.692 122.87 18.888 123.411 19.28C123.953 19.6627 124.335 20.1993 124.559 20.89C124.709 21.3567 124.783 21.8467 124.783 22.36C124.783 22.864 124.718 23.3353 124.587 23.774C124.382 24.502 123.999 25.076 123.439 25.496C122.889 25.9067 122.221 26.112 121.437 26.112ZM121.437 24.418C121.745 24.418 122.007 24.3247 122.221 24.138C122.436 23.9513 122.59 23.6947 122.683 23.368C122.758 23.0693 122.795 22.7427 122.795 22.388C122.795 21.996 122.758 21.6647 122.683 21.394C122.581 21.0767 122.422 20.8293 122.207 20.652C121.993 20.4747 121.731 20.386 121.423 20.386C121.106 20.386 120.84 20.4747 120.625 20.652C120.42 20.8293 120.271 21.0767 120.177 21.394C120.103 21.618 120.065 21.9493 120.065 22.388C120.065 22.808 120.098 23.1347 120.163 23.368C120.257 23.6947 120.411 23.9513 120.625 24.138C120.849 24.3247 121.12 24.418 121.437 24.418ZM129.804 18.692C130.551 18.692 131.153 18.9207 131.61 19.378C132.068 19.8353 132.296 20.456 132.296 21.24V25.832C132.296 25.8787 132.278 25.9207 132.24 25.958C132.212 25.986 132.175 26 132.128 26H130.49C130.444 26 130.402 25.986 130.364 25.958C130.336 25.9207 130.322 25.8787 130.322 25.832V21.646C130.322 21.2727 130.215 20.9693 130 20.736C129.795 20.5027 129.52 20.386 129.174 20.386C128.829 20.386 128.549 20.5027 128.334 20.736C128.129 20.9693 128.026 21.2727 128.026 21.646V25.832C128.026 25.8787 128.008 25.9207 127.97 25.958C127.942 25.986 127.905 26 127.858 26H126.22C126.174 26 126.132 25.986 126.094 25.958C126.066 25.9207 126.052 25.8787 126.052 25.832V18.972C126.052 18.9253 126.066 18.888 126.094 18.86C126.132 18.8227 126.174 18.804 126.22 18.804H127.858C127.905 18.804 127.942 18.8227 127.97 18.86C128.008 18.888 128.026 18.9253 128.026 18.972V19.462C128.026 19.49 128.036 19.5087 128.054 19.518C128.073 19.5273 128.087 19.5227 128.096 19.504C128.479 18.9627 129.048 18.692 129.804 18.692ZM136.578 26.098C135.953 26.098 135.407 26.0093 134.94 25.832C134.474 25.6547 134.11 25.4073 133.848 25.09C133.596 24.7727 133.47 24.4133 133.47 24.012V23.872C133.47 23.8253 133.484 23.788 133.512 23.76C133.55 23.7227 133.592 23.704 133.638 23.704H135.192C135.239 23.704 135.276 23.7227 135.304 23.76C135.342 23.788 135.36 23.8253 135.36 23.872V23.886C135.36 24.0913 135.472 24.2687 135.696 24.418C135.93 24.558 136.219 24.628 136.564 24.628C136.882 24.628 137.138 24.5673 137.334 24.446C137.53 24.3153 137.628 24.1567 137.628 23.97C137.628 23.802 137.544 23.676 137.376 23.592C137.208 23.508 136.933 23.4193 136.55 23.326C136.112 23.214 135.766 23.1067 135.514 23.004C134.917 22.7987 134.441 22.5467 134.086 22.248C133.732 21.9493 133.554 21.52 133.554 20.96C133.554 20.2693 133.82 19.7233 134.352 19.322C134.894 18.9113 135.608 18.706 136.494 18.706C137.092 18.706 137.614 18.804 138.062 19C138.51 19.1867 138.856 19.4527 139.098 19.798C139.35 20.1433 139.476 20.5353 139.476 20.974C139.476 21.0207 139.458 21.0627 139.42 21.1C139.392 21.128 139.355 21.142 139.308 21.142H137.81C137.764 21.142 137.722 21.128 137.684 21.1C137.656 21.0627 137.642 21.0207 137.642 20.974C137.642 20.7687 137.535 20.596 137.32 20.456C137.115 20.316 136.84 20.246 136.494 20.246C136.186 20.246 135.934 20.302 135.738 20.414C135.542 20.526 135.444 20.68 135.444 20.876C135.444 21.0627 135.538 21.2027 135.724 21.296C135.92 21.3893 136.242 21.4873 136.69 21.59C136.793 21.618 136.91 21.6507 137.04 21.688C137.171 21.716 137.311 21.7533 137.46 21.8C138.123 21.996 138.646 22.248 139.028 22.556C139.411 22.864 139.602 23.312 139.602 23.9C139.602 24.5907 139.327 25.132 138.776 25.524C138.235 25.9067 137.502 26.098 136.578 26.098Z" fill="white"/>
</svg>
